<svg viewBox="0 0 800 480" xmlns="http://www.w3.org/2000/svg" role="img" aria-label="SS-SVC-32CX 설치 위치 도식 — 대형 디젤엔진 실린더 헤드 측면 직접 장착">
  <defs>
    <linearGradient id="headGrad" x1="0%" y1="0%" x2="0%" y2="100%">
      <stop offset="0%" stop-color="#3a3a3a"/>
      <stop offset="100%" stop-color="#1a1a1a"/>
    </linearGradient>
    <linearGradient id="cylGrad" x1="0%" y1="0%" x2="0%" y2="100%">
      <stop offset="0%" stop-color="#2a2a2a"/>
      <stop offset="100%" stop-color="#0a0a0a"/>
    </linearGradient>
    <radialGradient id="gasGrad" cx="50%" cy="50%" r="50%">
      <stop offset="0%" stop-color="rgba(255,140,0,0.4)"/>
      <stop offset="100%" stop-color="rgba(200,30,0,0.1)"/>
    </radialGradient>
    <filter id="glow" x="-50%" y="-50%" width="200%" height="200%">
      <feGaussianBlur stdDeviation="4" result="blur"/>
      <feMerge>
        <feMergeNode in="blur"/>
        <feMergeNode in="SourceGraphic"/>
      </feMerge>
    </filter>
  </defs>
  
  <rect width="800" height="480" fill="#f5f5f5"/>
  
  <!-- 격자 -->
  <g stroke="#e8e8e8" stroke-width="0.5" fill="none">
    <line x1="0" y1="80" x2="800" y2="80"/>
    <line x1="0" y1="160" x2="800" y2="160"/>
    <line x1="0" y1="240" x2="800" y2="240"/>
    <line x1="0" y1="320" x2="800" y2="320"/>
    <line x1="0" y1="400" x2="800" y2="400"/>
  </g>
  
  <!-- ============ 엔진 단면 ============ -->
  <g transform="translate(80, 100)">
    
    <!-- 실린더 헤드 -->
    <rect x="0" y="80" width="320" height="100" fill="url(#headGrad)" stroke="#000" stroke-width="2"/>
    <text x="160" y="132" text-anchor="middle" fill="#ffc400" font-size="13" font-weight="700" font-family="Pretendard, sans-serif" letter-spacing="1">
      CYLINDER HEAD
    </text>
    <text x="160" y="150" text-anchor="middle" fill="rgba(255,255,255,0.6)" font-size="10" font-family="Pretendard, sans-serif">
      실린더 헤드
    </text>
    
    <!-- 실린더 본체 -->
    <rect x="40" y="180" width="240" height="140" fill="url(#cylGrad)" stroke="#000" stroke-width="2"/>
    
    <!-- CYLINDER 라벨 -->
    <text x="95" y="252" text-anchor="middle" fill="#ffc400" font-size="13" font-weight="700" font-family="Pretendard, sans-serif" letter-spacing="1">
      CYLINDER
    </text>
    <text x="95" y="270" text-anchor="middle" fill="rgba(255,255,255,0.5)" font-size="10" font-family="Pretendard, sans-serif">
      실린더
    </text>
    
    <!-- 연소실 -->
    <ellipse cx="160" cy="180" rx="100" ry="20" fill="url(#gasGrad)" opacity="0.7"/>
    <text x="160" y="184" text-anchor="middle" fill="rgba(255,255,255,0.85)" font-size="9" font-weight="600" font-family="Pretendard, sans-serif" letter-spacing="0.5">
      COMBUSTION CHAMBER
    </text>
    
    <!-- 피스톤 -->
    <rect x="60" y="208" width="200" height="14" fill="#444" stroke="#000" stroke-width="1.5"/>
    <text x="160" y="219" text-anchor="middle" fill="rgba(255,255,255,0.7)" font-size="8" font-family="Pretendard, sans-serif">
      PISTON
    </text>
    
    <!-- 피스톤 로드 -->
    <rect x="150" y="222" width="20" height="90" fill="#333" stroke="#000" stroke-width="1"/>
    
    <!-- ============ SS-SVC-32CX 부품 — 노란 원 정중앙 (355, 90) ============ -->
    <!-- 노란 강조 원 -->
    <circle cx="355" cy="90" r="48" fill="rgba(255,196,0,0.18)" filter="url(#glow)"/>
    <circle cx="355" cy="90" r="42" fill="none" stroke="#ffc400" stroke-width="2.5" stroke-dasharray="4 3"/>
    
    <!-- 부품 본체 — 노란 원 정중앙 (355, 90) 기준으로 균형있게 배치 -->
    <!-- 부품 전체 높이 약 80px (50~130), 폭 약 30px -->
    <!-- 회전 중심도 원 중앙 (355, 90)으로 — 어떻게 기울여도 중앙 유지 -->
    <g transform="rotate(-10, 355, 90)">
      <!-- 상단 너트 (체결부) -->
      <polygon points="355,52 361,55 361,63 355,66 349,63 349,55" fill="#777" stroke="#000" stroke-width="1.2"/>
      
      <!-- 상단 본체 (Indicator Cock 윗부분 - 사각 박스) -->
      <rect x="346" y="66" width="18" height="18" fill="#666" stroke="#000" stroke-width="1.3"/>
      
      <!-- 메인 본체 (Indicator Cock 세로 막대) -->
      <rect x="350" y="84" width="10" height="32" fill="#555" stroke="#000" stroke-width="1.3"/>
      
      <!-- 하단 플랜지 (헤드 측면 접합부) -->
      <rect x="343" y="116" width="24" height="8" fill="#444" stroke="#000" stroke-width="1.3"/>
      
      <!-- 플랜지 볼트 -->
      <circle cx="347" cy="120" r="1.8" fill="#222"/>
      <circle cx="363" cy="120" r="1.8" fill="#222"/>
      
      <!-- Safety Valve — 본체 중간에서 우상향 (-35도) -->
      <g transform="rotate(-35, 360, 90)">
        <rect x="360" y="85" width="26" height="11" fill="#666" stroke="#000" stroke-width="1.3"/>
        <rect x="381" y="87" width="7" height="7" fill="#777" stroke="#000" stroke-width="1"/>
      </g>
    </g>
    
    <!-- 부품 → 라벨 화살표 -->
    <g stroke="#1a1a1a" stroke-width="1.5" fill="none">
      <line x1="405" y1="90" x2="465" y2="90" stroke-dasharray="0"/>
      <polygon points="465,90 458,86 458,94" fill="#1a1a1a"/>
    </g>
    
    <!-- 라벨 박스 -->
    <g transform="translate(475, 68)">
      <rect x="0" y="0" width="155" height="48" fill="#1a1a1a" stroke="#ffc400" stroke-width="2"/>
      <text x="14" y="20" fill="#ffc400" font-size="13" font-weight="800" font-family="Pretendard, sans-serif" letter-spacing="0.5">
        SS-SVC-32CX
      </text>
      <text x="14" y="38" fill="rgba(255,255,255,0.85)" font-size="10" font-weight="500" font-family="Pretendard, sans-serif">
        설치 위치 (Installation Point)
      </text>
    </g>
    
    <!-- 압력 흐름 (연소실 → 부품 플랜지) -->
    <g stroke="#ffc400" stroke-width="1.8" fill="none" stroke-dasharray="4 3" opacity="0.75">
      <path d="M 240 175 Q 290 150, 340 125"/>
    </g>
    <polygon points="343,123 335,121 337,128" fill="#ffc400" opacity="0.85"/>
    
  </g>
  
  <!-- ============ 하단 설명 ============ -->
  <g transform="translate(140, 425)">
    <g>
      <rect x="0" y="0" width="6" height="50" fill="#ffc400"/>
      <text x="18" y="14" fill="#1a1a1a" font-size="11" font-weight="800" font-family="Pretendard, sans-serif" letter-spacing="1.5">
        FUNCTION · 기능
      </text>
      <text x="18" y="32" fill="#555" font-size="11" font-family="Pretendard, sans-serif">
        · 연소실 압력 측정 (Indicator Cock)
      </text>
      <text x="18" y="46" fill="#555" font-size="11" font-family="Pretendard, sans-serif">
        · 과압 발생 시 안전 배출 (Safety Valve)
      </text>
    </g>
    
    <g transform="translate(360, 0)">
      <rect x="0" y="0" width="6" height="50" fill="#ffc400"/>
      <text x="18" y="14" fill="#1a1a1a" font-size="11" font-weight="800" font-family="Pretendard, sans-serif" letter-spacing="1.5">
        APPLICATION · 적용
      </text>
      <text x="18" y="32" fill="#555" font-size="11" font-family="Pretendard, sans-serif">
        · 대형 디젤엔진 실린더 헤드 측면
      </text>
      <text x="18" y="46" fill="#555" font-size="11" font-family="Pretendard, sans-serif">
        · 노후 엔진 단종 부품 대체용
      </text>
    </g>
  </g>
  
  <!-- 좌상단 라벨 -->
  <g transform="translate(40, 30)">
    <rect x="0" y="0" width="3" height="22" fill="#ffc400"/>
    <text x="10" y="11" fill="#1a1a1a" font-size="10" font-weight="800" font-family="Pretendard, sans-serif" letter-spacing="2">
      INSTALLATION DIAGRAM
    </text>
    <text x="10" y="25" fill="#888" font-size="9" font-family="Pretendard, sans-serif">
      설치 위치 도식 (단면도)
    </text>
  </g>
  
  <!-- 우상단 모델명 -->
  <g transform="translate(620, 30)">
    <text x="0" y="11" fill="#1a1a1a" font-size="11" font-weight="800" font-family="Pretendard, sans-serif" letter-spacing="1">
      SS-SVC-32CX
    </text>
    <text x="0" y="25" fill="#888" font-size="9" font-family="Pretendard, sans-serif">
      © SAMSUN Engineering
    </text>
  </g>
  
</svg>